<svg viewBox="0 0 542.376 258.274" xmlns="http://www.w3.org/2000/svg">
<g id="slice:3:2_2_1:1">
<path d="M322.729,38.6274 L367.984,38.6274 L367.984,83.8822 L322.729,83.8822 L322.729,38.6274" stroke="none" fill-opacity="0.75" fill="#AAAAAA"/>
<clipPath id="clip0"><path d="M322.729,38.6274 L367.984,38.6274 L367.984,83.8822 L322.729,83.8822 L322.729,38.6274"/></clipPath>
<circle clip-path="url(#clip0)" cx="322.729" cy="38.6274" r="20" stroke="none" fill="url('#zgrad')"/>
<circle clip-path="url(#clip0)" cx="367.984" cy="38.6274" r="20" stroke="none" fill="url('#xgrad')"/>
<circle clip-path="url(#clip0)" cx="322.729" cy="83.8822" r="20" stroke="none" fill="url('#xgrad')"/>
<circle clip-path="url(#clip0)" cx="367.984" cy="83.8822" r="20" stroke="none" fill="url('#zgrad')"/>
<path d="M322.729,38.6274 L367.984,38.6274 L367.984,83.8822 L322.729,83.8822 L322.729,38.6274" stroke="black" fill="none"/>
</g>
<g id="slice:4:4_2_1:1">
<path d="M367.984,38.6274 L413.239,38.6274 L413.239,83.8822 L367.984,83.8822 L367.984,38.6274" stroke="none" fill-opacity="0.75" fill="#AAAAAA"/>
<clipPath id="clip1"><path d="M367.984,38.6274 L413.239,38.6274 L413.239,83.8822 L367.984,83.8822 L367.984,38.6274"/></clipPath>
<circle clip-path="url(#clip1)" cx="367.984" cy="38.6274" r="20" stroke="none" fill="url('#zgrad')"/>
<circle clip-path="url(#clip1)" cx="413.239" cy="38.6274" r="20" stroke="none" fill="url('#xgrad')"/>
<circle clip-path="url(#clip1)" cx="367.984" cy="83.8822" r="20" stroke="none" fill="url('#xgrad')"/>
<circle clip-path="url(#clip1)" cx="413.239" cy="83.8822" r="20" stroke="none" fill="url('#zgrad')"/>
<path d="M367.984,38.6274 L413.239,38.6274 L413.239,83.8822 L367.984,83.8822 L367.984,38.6274" stroke="black" fill="none"/>
</g>
<g id="slice:5:6_2_1:1">
<path d="M413.239,38.6274 L458.494,38.6274 L458.494,83.8822 L413.239,83.8822 L413.239,38.6274" stroke="none" fill-opacity="0.75" fill="#AAAAAA"/>
<clipPath id="clip2"><path d="M413.239,38.6274 L458.494,38.6274 L458.494,83.8822 L413.239,83.8822 L413.239,38.6274"/></clipPath>
<circle clip-path="url(#clip2)" cx="413.239" cy="38.6274" r="20" stroke="none" fill="url('#zgrad')"/>
<circle clip-path="url(#clip2)" cx="458.494" cy="38.6274" r="20" stroke="none" fill="url('#xgrad')"/>
<circle clip-path="url(#clip2)" cx="413.239" cy="83.8822" r="20" stroke="none" fill="url('#xgrad')"/>
<circle clip-path="url(#clip2)" cx="458.494" cy="83.8822" r="20" stroke="none" fill="url('#zgrad')"/>
<path d="M413.239,38.6274 L458.494,38.6274 L458.494,83.8822 L413.239,83.8822 L413.239,38.6274" stroke="black" fill="none"/>
</g>
<g id="slice:6:8_2_1:1">
<path d="M458.494,38.6274 L503.748,38.6274 L503.748,83.8822 L458.494,83.8822 L458.494,38.6274" stroke="none" fill-opacity="0.75" fill="#AAAAAA"/>
<clipPath id="clip3"><path d="M458.494,38.6274 L503.748,38.6274 L503.748,83.8822 L458.494,83.8822 L458.494,38.6274"/></clipPath>
<circle clip-path="url(#clip3)" cx="458.494" cy="38.6274" r="20" stroke="none" fill="url('#zgrad')"/>
<circle clip-path="url(#clip3)" cx="503.748" cy="38.6274" r="20" stroke="none" fill="url('#xgrad')"/>
<circle clip-path="url(#clip3)" cx="458.494" cy="83.8822" r="20" stroke="none" fill="url('#xgrad')"/>
<circle clip-path="url(#clip3)" cx="503.748" cy="83.8822" r="20" stroke="none" fill="url('#zgrad')"/>
<path d="M458.494,38.6274 L503.748,38.6274 L503.748,83.8822 L458.494,83.8822 L458.494,38.6274" stroke="black" fill="none"/>
</g>
<g id="slice:7:2_4_1:1">
<path d="M322.729,83.8822 L367.984,83.8822 L367.984,129.137 L322.729,129.137 L322.729,83.8822" stroke="none" fill-opacity="0.75" fill="#AAAAAA"/>
<clipPath id="clip4"><path d="M322.729,83.8822 L367.984,83.8822 L367.984,129.137 L322.729,129.137 L322.729,83.8822"/></clipPath>
<circle clip-path="url(#clip4)" cx="322.729" cy="83.8822" r="20" stroke="none" fill="url('#zgrad')"/>
<circle clip-path="url(#clip4)" cx="367.984" cy="83.8822" r="20" stroke="none" fill="url('#xgrad')"/>
<circle clip-path="url(#clip4)" cx="322.729" cy="129.137" r="20" stroke="none" fill="url('#xgrad')"/>
<circle clip-path="url(#clip4)" cx="367.984" cy="129.137" r="20" stroke="none" fill="url('#zgrad')"/>
<path d="M322.729,83.8822 L367.984,83.8822 L367.984,129.137 L322.729,129.137 L322.729,83.8822" stroke="black" fill="none"/>
</g>
<g id="slice:8:4_4_1:1">
<path d="M367.984,83.8822 L413.239,83.8822 L413.239,129.137 L367.984,129.137 L367.984,83.8822" stroke="none" fill-opacity="0.75" fill="#AAAAAA"/>
<clipPath id="clip5"><path d="M367.984,83.8822 L413.239,83.8822 L413.239,129.137 L367.984,129.137 L367.984,83.8822"/></clipPath>
<circle clip-path="url(#clip5)" cx="367.984" cy="83.8822" r="20" stroke="none" fill="url('#zgrad')"/>
<circle clip-path="url(#clip5)" cx="413.239" cy="83.8822" r="20" stroke="none" fill="url('#xgrad')"/>
<circle clip-path="url(#clip5)" cx="367.984" cy="129.137" r="20" stroke="none" fill="url('#xgrad')"/>
<circle clip-path="url(#clip5)" cx="413.239" cy="129.137" r="20" stroke="none" fill="url('#zgrad')"/>
<path d="M367.984,83.8822 L413.239,83.8822 L413.239,129.137 L367.984,129.137 L367.984,83.8822" stroke="black" fill="none"/>
</g>
<g id="slice:9:6_4_1:1">
<path d="M413.239,83.8822 L458.494,83.8822 L458.494,129.137 L413.239,129.137 L413.239,83.8822" stroke="none" fill-opacity="0.75" fill="#AAAAAA"/>
<clipPath id="clip6"><path d="M413.239,83.8822 L458.494,83.8822 L458.494,129.137 L413.239,129.137 L413.239,83.8822"/></clipPath>
<circle clip-path="url(#clip6)" cx="413.239" cy="83.8822" r="20" stroke="none" fill="url('#zgrad')"/>
<circle clip-path="url(#clip6)" cx="458.494" cy="83.8822" r="20" stroke="none" fill="url('#xgrad')"/>
<circle clip-path="url(#clip6)" cx="413.239" cy="129.137" r="20" stroke="none" fill="url('#xgrad')"/>
<circle clip-path="url(#clip6)" cx="458.494" cy="129.137" r="20" stroke="none" fill="url('#zgrad')"/>
<path d="M413.239,83.8822 L458.494,83.8822 L458.494,129.137 L413.239,129.137 L413.239,83.8822" stroke="black" fill="none"/>
</g>
<g id="slice:10:8_4_1:1">
<path d="M458.494,83.8822 L503.748,83.8822 L503.748,129.137 L458.494,129.137 L458.494,83.8822" stroke="none" fill-opacity="0.75" fill="#AAAAAA"/>
<clipPath id="clip7"><path d="M458.494,83.8822 L503.748,83.8822 L503.748,129.137 L458.494,129.137 L458.494,83.8822"/></clipPath>
<circle clip-path="url(#clip7)" cx="458.494" cy="83.8822" r="20" stroke="none" fill="url('#zgrad')"/>
<circle clip-path="url(#clip7)" cx="503.748" cy="83.8822" r="20" stroke="none" fill="url('#xgrad')"/>
<circle clip-path="url(#clip7)" cx="458.494" cy="129.137" r="20" stroke="none" fill="url('#xgrad')"/>
<circle clip-path="url(#clip7)" cx="503.748" cy="129.137" r="20" stroke="none" fill="url('#zgrad')"/>
<path d="M458.494,83.8822 L503.748,83.8822 L503.748,129.137 L458.494,129.137 L458.494,83.8822" stroke="black" fill="none"/>
</g>
<g id="slice:13:2_6_1:1">
<path d="M322.729,129.137 L367.984,129.137 L367.984,174.392 L322.729,174.392 L322.729,129.137" stroke="none" fill-opacity="0.75" fill="#AAAAAA"/>
<clipPath id="clip8"><path d="M322.729,129.137 L367.984,129.137 L367.984,174.392 L322.729,174.392 L322.729,129.137"/></clipPath>
<circle clip-path="url(#clip8)" cx="322.729" cy="129.137" r="20" stroke="none" fill="url('#zgrad')"/>
<circle clip-path="url(#clip8)" cx="367.984" cy="129.137" r="20" stroke="none" fill="url('#xgrad')"/>
<circle clip-path="url(#clip8)" cx="322.729" cy="174.392" r="20" stroke="none" fill="url('#xgrad')"/>
<circle clip-path="url(#clip8)" cx="367.984" cy="174.392" r="20" stroke="none" fill="url('#zgrad')"/>
<path d="M322.729,129.137 L367.984,129.137 L367.984,174.392 L322.729,174.392 L322.729,129.137" stroke="black" fill="none"/>
</g>
<g id="slice:14:4_6_1:1">
<path d="M367.984,129.137 L413.239,129.137 L413.239,174.392 L367.984,174.392 L367.984,129.137" stroke="none" fill-opacity="0.75" fill="#AAAAAA"/>
<clipPath id="clip9"><path d="M367.984,129.137 L413.239,129.137 L413.239,174.392 L367.984,174.392 L367.984,129.137"/></clipPath>
<circle clip-path="url(#clip9)" cx="367.984" cy="129.137" r="20" stroke="none" fill="url('#zgrad')"/>
<circle clip-path="url(#clip9)" cx="413.239" cy="129.137" r="20" stroke="none" fill="url('#xgrad')"/>
<circle clip-path="url(#clip9)" cx="367.984" cy="174.392" r="20" stroke="none" fill="url('#xgrad')"/>
<circle clip-path="url(#clip9)" cx="413.239" cy="174.392" r="20" stroke="none" fill="url('#zgrad')"/>
<path d="M367.984,129.137 L413.239,129.137 L413.239,174.392 L367.984,174.392 L367.984,129.137" stroke="black" fill="none"/>
</g>
<g id="slice:15:6_6_1:1">
<path d="M413.239,129.137 L458.494,129.137 L458.494,174.392 L413.239,174.392 L413.239,129.137" stroke="none" fill-opacity="0.75" fill="#AAAAAA"/>
<clipPath id="clip10"><path d="M413.239,129.137 L458.494,129.137 L458.494,174.392 L413.239,174.392 L413.239,129.137"/></clipPath>
<circle clip-path="url(#clip10)" cx="413.239" cy="129.137" r="20" stroke="none" fill="url('#zgrad')"/>
<circle clip-path="url(#clip10)" cx="458.494" cy="129.137" r="20" stroke="none" fill="url('#xgrad')"/>
<circle clip-path="url(#clip10)" cx="413.239" cy="174.392" r="20" stroke="none" fill="url('#xgrad')"/>
<circle clip-path="url(#clip10)" cx="458.494" cy="174.392" r="20" stroke="none" fill="url('#zgrad')"/>
<path d="M413.239,129.137 L458.494,129.137 L458.494,174.392 L413.239,174.392 L413.239,129.137" stroke="black" fill="none"/>
</g>
<g id="slice:16:8_6_1:1">
<path d="M458.494,129.137 L503.748,129.137 L503.748,174.392 L458.494,174.392 L458.494,129.137" stroke="none" fill-opacity="0.75" fill="#AAAAAA"/>
<clipPath id="clip11"><path d="M458.494,129.137 L503.748,129.137 L503.748,174.392 L458.494,174.392 L458.494,129.137"/></clipPath>
<circle clip-path="url(#clip11)" cx="458.494" cy="129.137" r="20" stroke="none" fill="url('#zgrad')"/>
<circle clip-path="url(#clip11)" cx="503.748" cy="129.137" r="20" stroke="none" fill="url('#xgrad')"/>
<circle clip-path="url(#clip11)" cx="458.494" cy="174.392" r="20" stroke="none" fill="url('#xgrad')"/>
<circle clip-path="url(#clip11)" cx="503.748" cy="174.392" r="20" stroke="none" fill="url('#zgrad')"/>
<path d="M458.494,129.137 L503.748,129.137 L503.748,174.392 L458.494,174.392 L458.494,129.137" stroke="black" fill="none"/>
</g>
<g id="slice:17:2_8_1:1">
<path d="M322.729,174.392 L367.984,174.392 L367.984,219.647 L322.729,219.647 L322.729,174.392" stroke="none" fill-opacity="0.75" fill="#AAAAAA"/>
<clipPath id="clip12"><path d="M322.729,174.392 L367.984,174.392 L367.984,219.647 L322.729,219.647 L322.729,174.392"/></clipPath>
<circle clip-path="url(#clip12)" cx="322.729" cy="174.392" r="20" stroke="none" fill="url('#zgrad')"/>
<circle clip-path="url(#clip12)" cx="367.984" cy="174.392" r="20" stroke="none" fill="url('#xgrad')"/>
<circle clip-path="url(#clip12)" cx="322.729" cy="219.647" r="20" stroke="none" fill="url('#xgrad')"/>
<circle clip-path="url(#clip12)" cx="367.984" cy="219.647" r="20" stroke="none" fill="url('#zgrad')"/>
<path d="M322.729,174.392 L367.984,174.392 L367.984,219.647 L322.729,219.647 L322.729,174.392" stroke="black" fill="none"/>
</g>
<g id="slice:18:4_8_1:1">
<path d="M367.984,174.392 L413.239,174.392 L413.239,219.647 L367.984,219.647 L367.984,174.392" stroke="none" fill-opacity="0.75" fill="#AAAAAA"/>
<clipPath id="clip13"><path d="M367.984,174.392 L413.239,174.392 L413.239,219.647 L367.984,219.647 L367.984,174.392"/></clipPath>
<circle clip-path="url(#clip13)" cx="367.984" cy="174.392" r="20" stroke="none" fill="url('#zgrad')"/>
<circle clip-path="url(#clip13)" cx="413.239" cy="174.392" r="20" stroke="none" fill="url('#xgrad')"/>
<circle clip-path="url(#clip13)" cx="367.984" cy="219.647" r="20" stroke="none" fill="url('#xgrad')"/>
<circle clip-path="url(#clip13)" cx="413.239" cy="219.647" r="20" stroke="none" fill="url('#zgrad')"/>
<path d="M367.984,174.392 L413.239,174.392 L413.239,219.647 L367.984,219.647 L367.984,174.392" stroke="black" fill="none"/>
</g>
<g id="slice:19:6_8_1:1">
<path d="M413.239,174.392 L458.494,174.392 L458.494,219.647 L413.239,219.647 L413.239,174.392" stroke="none" fill-opacity="0.75" fill="#AAAAAA"/>
<clipPath id="clip14"><path d="M413.239,174.392 L458.494,174.392 L458.494,219.647 L413.239,219.647 L413.239,174.392"/></clipPath>
<circle clip-path="url(#clip14)" cx="413.239" cy="174.392" r="20" stroke="none" fill="url('#zgrad')"/>
<circle clip-path="url(#clip14)" cx="458.494" cy="174.392" r="20" stroke="none" fill="url('#xgrad')"/>
<circle clip-path="url(#clip14)" cx="413.239" cy="219.647" r="20" stroke="none" fill="url('#xgrad')"/>
<circle clip-path="url(#clip14)" cx="458.494" cy="219.647" r="20" stroke="none" fill="url('#zgrad')"/>
<path d="M413.239,174.392 L458.494,174.392 L458.494,219.647 L413.239,219.647 L413.239,174.392" stroke="black" fill="none"/>
</g>
<g id="slice:20:8_8_1:1">
<path d="M458.494,174.392 L503.748,174.392 L503.748,219.647 L458.494,219.647 L458.494,174.392" stroke="none" fill-opacity="0.75" fill="#AAAAAA"/>
<clipPath id="clip15"><path d="M458.494,174.392 L503.748,174.392 L503.748,219.647 L458.494,219.647 L458.494,174.392"/></clipPath>
<circle clip-path="url(#clip15)" cx="458.494" cy="174.392" r="20" stroke="none" fill="url('#zgrad')"/>
<circle clip-path="url(#clip15)" cx="503.748" cy="174.392" r="20" stroke="none" fill="url('#xgrad')"/>
<circle clip-path="url(#clip15)" cx="458.494" cy="219.647" r="20" stroke="none" fill="url('#xgrad')"/>
<circle clip-path="url(#clip15)" cx="503.748" cy="219.647" r="20" stroke="none" fill="url('#zgrad')"/>
<path d="M458.494,174.392 L503.748,174.392 L503.748,219.647 L458.494,219.647 L458.494,174.392" stroke="black" fill="none"/>
</g>
<g id="slice:0:4_0_1:1">
<path d="M367.984,38.6274 C381.56 47.6784, 399.662 47.6784, 413.239 38.6274 C399.662 29.5764, 381.56 29.5764, 367.984 38.6274" stroke="none" fill="#AAAAAA"/>
<clipPath id="clip16"><path d="M367.984,38.6274 C381.56 47.6784, 399.662 47.6784, 413.239 38.6274 C399.662 29.5764, 381.56 29.5764, 367.984 38.6274"/></clipPath>
<circle clip-path="url(#clip16)" cx="367.984" cy="38.6274" r="20" stroke="none" fill="url('#xgrad')"/>
<circle clip-path="url(#clip16)" cx="413.239" cy="38.6274" r="20" stroke="none" fill="url('#zgrad')"/>
<path d="M367.984,38.6274 C381.56 47.6784, 399.662 47.6784, 413.239 38.6274 C399.662 29.5764, 381.56 29.5764, 367.984 38.6274" stroke="black" fill="none"/>
</g>
<g id="slice:1:8_0_1:1">
<path d="M458.494,38.6274 C472.07 47.6784, 490.172 47.6784, 503.748 38.6274 C490.172 29.5765, 472.07 29.5765, 458.494 38.6274" stroke="none" fill="#AAAAAA"/>
<clipPath id="clip17"><path d="M458.494,38.6274 C472.07 47.6784, 490.172 47.6784, 503.748 38.6274 C490.172 29.5765, 472.07 29.5765, 458.494 38.6274"/></clipPath>
<circle clip-path="url(#clip17)" cx="458.494" cy="38.6274" r="20" stroke="none" fill="url('#xgrad')"/>
<circle clip-path="url(#clip17)" cx="503.748" cy="38.6274" r="20" stroke="none" fill="url('#zgrad')"/>
<path d="M458.494,38.6274 C472.07 47.6784, 490.172 47.6784, 503.748 38.6274 C490.172 29.5765, 472.07 29.5765, 458.494 38.6274" stroke="black" fill="none"/>
</g>
<g id="slice:2:0_2_1:1">
<path d="M322.729,38.6274 C313.678 52.2039, 313.678 70.3058, 322.729 83.8822 C331.78 70.3058, 331.78 52.2039, 322.729 38.6274" stroke="none" fill="#AAAAAA"/>
<clipPath id="clip18"><path d="M322.729,38.6274 C313.678 52.2039, 313.678 70.3058, 322.729 83.8822 C331.78 70.3058, 331.78 52.2039, 322.729 38.6274"/></clipPath>
<circle clip-path="url(#clip18)" cx="322.729" cy="38.6274" r="20" stroke="none" fill="url('#xgrad')"/>
<circle clip-path="url(#clip18)" cx="322.729" cy="83.8822" r="20" stroke="none" fill="url('#zgrad')"/>
<path d="M322.729,38.6274 C313.678 52.2039, 313.678 70.3058, 322.729 83.8822 C331.78 70.3058, 331.78 52.2039, 322.729 38.6274" stroke="black" fill="none"/>
</g>
<g id="slice:11:10_4_1:1">
<path d="M503.748,83.8822 C494.697 97.4587, 494.697 115.561, 503.748 129.137 C512.799 115.561, 512.799 97.4587, 503.748 83.8822" stroke="none" fill="#AAAAAA"/>
<clipPath id="clip19"><path d="M503.748,83.8822 C494.697 97.4587, 494.697 115.561, 503.748 129.137 C512.799 115.561, 512.799 97.4587, 503.748 83.8822"/></clipPath>
<circle clip-path="url(#clip19)" cx="503.748" cy="83.8822" r="20" stroke="none" fill="url('#zgrad')"/>
<circle clip-path="url(#clip19)" cx="503.748" cy="129.137" r="20" stroke="none" fill="url('#xgrad')"/>
<path d="M503.748,83.8822 C494.697 97.4587, 494.697 115.561, 503.748 129.137 C512.799 115.561, 512.799 97.4587, 503.748 83.8822" stroke="black" fill="none"/>
</g>
<g id="slice:12:0_6_1:1">
<path d="M322.729,129.137 C313.678 142.714, 313.678 160.815, 322.729 174.392 C331.78 160.815, 331.78 142.714, 322.729 129.137" stroke="none" fill="#AAAAAA"/>
<clipPath id="clip20"><path d="M322.729,129.137 C313.678 142.714, 313.678 160.815, 322.729 174.392 C331.78 160.815, 331.78 142.714, 322.729 129.137"/></clipPath>
<circle clip-path="url(#clip20)" cx="322.729" cy="129.137" r="20" stroke="none" fill="url('#xgrad')"/>
<circle clip-path="url(#clip20)" cx="322.729" cy="174.392" r="20" stroke="none" fill="url('#zgrad')"/>
<path d="M322.729,129.137 C313.678 142.714, 313.678 160.815, 322.729 174.392 C331.78 160.815, 331.78 142.714, 322.729 129.137" stroke="black" fill="none"/>
</g>
<g id="slice:21:10_8_1:1">
<path d="M503.748,174.392 C494.697 187.968, 494.697 206.07, 503.748 219.647 C512.799 206.07, 512.799 187.968, 503.748 174.392" stroke="none" fill="#AAAAAA"/>
<clipPath id="clip21"><path d="M503.748,174.392 C494.697 187.968, 494.697 206.07, 503.748 219.647 C512.799 206.07, 512.799 187.968, 503.748 174.392"/></clipPath>
<circle clip-path="url(#clip21)" cx="503.748" cy="174.392" r="20" stroke="none" fill="url('#zgrad')"/>
<circle clip-path="url(#clip21)" cx="503.748" cy="219.647" r="20" stroke="none" fill="url('#xgrad')"/>
<path d="M503.748,174.392 C494.697 187.968, 494.697 206.07, 503.748 219.647 C512.799 206.07, 512.799 187.968, 503.748 174.392" stroke="black" fill="none"/>
</g>
<g id="slice:22:2_10_1:1">
<path d="M322.729,219.647 C336.305 228.698, 354.407 228.698, 367.984 219.647 C354.407 210.596, 336.305 210.596, 322.729 219.647" stroke="none" fill="#AAAAAA"/>
<clipPath id="clip22"><path d="M322.729,219.647 C336.305 228.698, 354.407 228.698, 367.984 219.647 C354.407 210.596, 336.305 210.596, 322.729 219.647"/></clipPath>
<circle clip-path="url(#clip22)" cx="322.729" cy="219.647" r="20" stroke="none" fill="url('#zgrad')"/>
<circle clip-path="url(#clip22)" cx="367.984" cy="219.647" r="20" stroke="none" fill="url('#xgrad')"/>
<path d="M322.729,219.647 C336.305 228.698, 354.407 228.698, 367.984 219.647 C354.407 210.596, 336.305 210.596, 322.729 219.647" stroke="black" fill="none"/>
</g>
<g id="slice:23:6_10_1:1">
<path d="M413.239,219.647 C426.815 228.698, 444.917 228.698, 458.494 219.647 C444.917 210.596, 426.815 210.596, 413.239 219.647" stroke="none" fill="#AAAAAA"/>
<clipPath id="clip23"><path d="M413.239,219.647 C426.815 228.698, 444.917 228.698, 458.494 219.647 C444.917 210.596, 426.815 210.596, 413.239 219.647"/></clipPath>
<circle clip-path="url(#clip23)" cx="413.239" cy="219.647" r="20" stroke="none" fill="url('#zgrad')"/>
<circle clip-path="url(#clip23)" cx="458.494" cy="219.647" r="20" stroke="none" fill="url('#xgrad')"/>
<path d="M413.239,219.647 C426.815 228.698, 444.917 228.698, 458.494 219.647 C444.917 210.596, 426.815 210.596, 413.239 219.647" stroke="black" fill="none"/>
</g>
<defs>
<radialGradient id="xgrad"><stop offset="50%" stop-color="#FF4040" stop-opacity="1"/><stop offset="100%" stop-color="#AAAAAA" stop-opacity="0"/></radialGradient>
<radialGradient id="ygrad"><stop offset="50%" stop-color="#59FF7A" stop-opacity="1"/><stop offset="100%" stop-color="#AAAAAA" stop-opacity="0"/></radialGradient>
<radialGradient id="zgrad"><stop offset="50%" stop-color="#4DA6FF" stop-opacity="1"/><stop offset="100%" stop-color="#AAAAAA" stop-opacity="0"/></radialGradient>
</defs>
<g id="qubit_dots">
<circle id="qubit_dot:0:1_1:0" cx="38.6274" cy="38.6274" r="2" stroke="none" fill="black"/>
<circle id="qubit_dot:1:3_1:0" cx="83.8822" cy="38.6274" r="2" stroke="none" fill="black"/>
<circle id="qubit_dot:2:5_1:0" cx="129.137" cy="38.6274" r="2" stroke="none" fill="black"/>
<circle id="qubit_dot:3:7_1:0" cx="174.392" cy="38.6274" r="2" stroke="none" fill="black"/>
<circle id="qubit_dot:4:9_1:0" cx="219.647" cy="38.6274" r="2" stroke="none" fill="black"/>
<circle id="qubit_dot:5:1_3:0" cx="38.6274" cy="83.8822" r="2" stroke="none" fill="black"/>
<circle id="qubit_dot:6:3_3:0" cx="83.8822" cy="83.8822" r="2" stroke="none" fill="black"/>
<circle id="qubit_dot:7:5_3:0" cx="129.137" cy="83.8822" r="2" stroke="none" fill="black"/>
<circle id="qubit_dot:8:7_3:0" cx="174.392" cy="83.8822" r="2" stroke="none" fill="black"/>
<circle id="qubit_dot:9:9_3:0" cx="219.647" cy="83.8822" r="2" stroke="none" fill="black"/>
<circle id="qubit_dot:10:1_5:0" cx="38.6274" cy="129.137" r="2" stroke="none" fill="black"/>
<circle id="qubit_dot:11:3_5:0" cx="83.8822" cy="129.137" r="2" stroke="none" fill="black"/>
<circle id="qubit_dot:12:5_5:0" cx="129.137" cy="129.137" r="2" stroke="none" fill="black"/>
<circle id="qubit_dot:13:7_5:0" cx="174.392" cy="129.137" r="2" stroke="none" fill="black"/>
<circle id="qubit_dot:14:9_5:0" cx="219.647" cy="129.137" r="2" stroke="none" fill="black"/>
<circle id="qubit_dot:15:1_7:0" cx="38.6274" cy="174.392" r="2" stroke="none" fill="black"/>
<circle id="qubit_dot:16:3_7:0" cx="83.8822" cy="174.392" r="2" stroke="none" fill="black"/>
<circle id="qubit_dot:17:5_7:0" cx="129.137" cy="174.392" r="2" stroke="none" fill="black"/>
<circle id="qubit_dot:18:7_7:0" cx="174.392" cy="174.392" r="2" stroke="none" fill="black"/>
<circle id="qubit_dot:19:9_7:0" cx="219.647" cy="174.392" r="2" stroke="none" fill="black"/>
<circle id="qubit_dot:20:1_9:0" cx="38.6274" cy="219.647" r="2" stroke="none" fill="black"/>
<circle id="qubit_dot:21:3_9:0" cx="83.8822" cy="219.647" r="2" stroke="none" fill="black"/>
<circle id="qubit_dot:22:5_9:0" cx="129.137" cy="219.647" r="2" stroke="none" fill="black"/>
<circle id="qubit_dot:23:7_9:0" cx="174.392" cy="219.647" r="2" stroke="none" fill="black"/>
<circle id="qubit_dot:24:9_9:0" cx="219.647" cy="219.647" r="2" stroke="none" fill="black"/>
<circle id="qubit_dot:25:4_0:0" cx="106.51" cy="16" r="2" stroke="none" fill="black"/>
<circle id="qubit_dot:26:8_0:0" cx="197.019" cy="16" r="2" stroke="none" fill="black"/>
<circle id="qubit_dot:27:0_2:0" cx="16" cy="61.2548" r="2" stroke="none" fill="black"/>
<circle id="qubit_dot:28:2_2:0" cx="61.2548" cy="61.2548" r="2" stroke="none" fill="black"/>
<circle id="qubit_dot:29:4_2:0" cx="106.51" cy="61.2548" r="2" stroke="none" fill="black"/>
<circle id="qubit_dot:30:6_2:0" cx="151.764" cy="61.2548" r="2" stroke="none" fill="black"/>
<circle id="qubit_dot:31:8_2:0" cx="197.019" cy="61.2548" r="2" stroke="none" fill="black"/>
<circle id="qubit_dot:32:2_4:0" cx="61.2548" cy="106.51" r="2" stroke="none" fill="black"/>
<circle id="qubit_dot:33:4_4:0" cx="106.51" cy="106.51" r="2" stroke="none" fill="black"/>
<circle id="qubit_dot:34:6_4:0" cx="151.764" cy="106.51" r="2" stroke="none" fill="black"/>
<circle id="qubit_dot:35:8_4:0" cx="197.019" cy="106.51" r="2" stroke="none" fill="black"/>
<circle id="qubit_dot:36:10_4:0" cx="242.274" cy="106.51" r="2" stroke="none" fill="black"/>
<circle id="qubit_dot:37:0_6:0" cx="16" cy="151.764" r="2" stroke="none" fill="black"/>
<circle id="qubit_dot:38:2_6:0" cx="61.2548" cy="151.764" r="2" stroke="none" fill="black"/>
<circle id="qubit_dot:39:4_6:0" cx="106.51" cy="151.764" r="2" stroke="none" fill="black"/>
<circle id="qubit_dot:40:6_6:0" cx="151.764" cy="151.764" r="2" stroke="none" fill="black"/>
<circle id="qubit_dot:41:8_6:0" cx="197.019" cy="151.764" r="2" stroke="none" fill="black"/>
<circle id="qubit_dot:42:2_8:0" cx="61.2548" cy="197.019" r="2" stroke="none" fill="black"/>
<circle id="qubit_dot:43:4_8:0" cx="106.51" cy="197.019" r="2" stroke="none" fill="black"/>
<circle id="qubit_dot:44:6_8:0" cx="151.764" cy="197.019" r="2" stroke="none" fill="black"/>
<circle id="qubit_dot:45:8_8:0" cx="197.019" cy="197.019" r="2" stroke="none" fill="black"/>
<circle id="qubit_dot:46:10_8:0" cx="242.274" cy="197.019" r="2" stroke="none" fill="black"/>
<circle id="qubit_dot:47:2_10:0" cx="61.2548" cy="242.274" r="2" stroke="none" fill="black"/>
<circle id="qubit_dot:48:6_10:0" cx="151.764" cy="242.274" r="2" stroke="none" fill="black"/>
<circle id="qubit_dot:0:1_1:1" cx="322.729" cy="38.6274" r="2" stroke="none" fill="black"/>
<circle id="qubit_dot:1:3_1:1" cx="367.984" cy="38.6274" r="2" stroke="none" fill="black"/>
<circle id="qubit_dot:2:5_1:1" cx="413.239" cy="38.6274" r="2" stroke="none" fill="black"/>
<circle id="qubit_dot:3:7_1:1" cx="458.494" cy="38.6274" r="2" stroke="none" fill="black"/>
<circle id="qubit_dot:4:9_1:1" cx="503.748" cy="38.6274" r="2" stroke="none" fill="black"/>
<circle id="qubit_dot:5:1_3:1" cx="322.729" cy="83.8822" r="2" stroke="none" fill="black"/>
<circle id="qubit_dot:6:3_3:1" cx="367.984" cy="83.8822" r="2" stroke="none" fill="black"/>
<circle id="qubit_dot:7:5_3:1" cx="413.239" cy="83.8822" r="2" stroke="none" fill="black"/>
<circle id="qubit_dot:8:7_3:1" cx="458.494" cy="83.8822" r="2" stroke="none" fill="black"/>
<circle id="qubit_dot:9:9_3:1" cx="503.748" cy="83.8822" r="2" stroke="none" fill="black"/>
<circle id="qubit_dot:10:1_5:1" cx="322.729" cy="129.137" r="2" stroke="none" fill="black"/>
<circle id="qubit_dot:11:3_5:1" cx="367.984" cy="129.137" r="2" stroke="none" fill="black"/>
<circle id="qubit_dot:12:5_5:1" cx="413.239" cy="129.137" r="2" stroke="none" fill="black"/>
<circle id="qubit_dot:13:7_5:1" cx="458.494" cy="129.137" r="2" stroke="none" fill="black"/>
<circle id="qubit_dot:14:9_5:1" cx="503.748" cy="129.137" r="2" stroke="none" fill="black"/>
<circle id="qubit_dot:15:1_7:1" cx="322.729" cy="174.392" r="2" stroke="none" fill="black"/>
<circle id="qubit_dot:16:3_7:1" cx="367.984" cy="174.392" r="2" stroke="none" fill="black"/>
<circle id="qubit_dot:17:5_7:1" cx="413.239" cy="174.392" r="2" stroke="none" fill="black"/>
<circle id="qubit_dot:18:7_7:1" cx="458.494" cy="174.392" r="2" stroke="none" fill="black"/>
<circle id="qubit_dot:19:9_7:1" cx="503.748" cy="174.392" r="2" stroke="none" fill="black"/>
<circle id="qubit_dot:20:1_9:1" cx="322.729" cy="219.647" r="2" stroke="none" fill="black"/>
<circle id="qubit_dot:21:3_9:1" cx="367.984" cy="219.647" r="2" stroke="none" fill="black"/>
<circle id="qubit_dot:22:5_9:1" cx="413.239" cy="219.647" r="2" stroke="none" fill="black"/>
<circle id="qubit_dot:23:7_9:1" cx="458.494" cy="219.647" r="2" stroke="none" fill="black"/>
<circle id="qubit_dot:24:9_9:1" cx="503.748" cy="219.647" r="2" stroke="none" fill="black"/>
<circle id="qubit_dot:25:4_0:1" cx="390.611" cy="16" r="2" stroke="none" fill="black"/>
<circle id="qubit_dot:26:8_0:1" cx="481.121" cy="16" r="2" stroke="none" fill="black"/>
<circle id="qubit_dot:27:0_2:1" cx="300.102" cy="61.2548" r="2" stroke="none" fill="black"/>
<circle id="qubit_dot:28:2_2:1" cx="345.356" cy="61.2548" r="2" stroke="none" fill="black"/>
<circle id="qubit_dot:29:4_2:1" cx="390.611" cy="61.2548" r="2" stroke="none" fill="black"/>
<circle id="qubit_dot:30:6_2:1" cx="435.866" cy="61.2548" r="2" stroke="none" fill="black"/>
<circle id="qubit_dot:31:8_2:1" cx="481.121" cy="61.2548" r="2" stroke="none" fill="black"/>
<circle id="qubit_dot:32:2_4:1" cx="345.356" cy="106.51" r="2" stroke="none" fill="black"/>
<circle id="qubit_dot:33:4_4:1" cx="390.611" cy="106.51" r="2" stroke="none" fill="black"/>
<circle id="qubit_dot:34:6_4:1" cx="435.866" cy="106.51" r="2" stroke="none" fill="black"/>
<circle id="qubit_dot:35:8_4:1" cx="481.121" cy="106.51" r="2" stroke="none" fill="black"/>
<circle id="qubit_dot:36:10_4:1" cx="526.376" cy="106.51" r="2" stroke="none" fill="black"/>
<circle id="qubit_dot:37:0_6:1" cx="300.102" cy="151.764" r="2" stroke="none" fill="black"/>
<circle id="qubit_dot:38:2_6:1" cx="345.356" cy="151.764" r="2" stroke="none" fill="black"/>
<circle id="qubit_dot:39:4_6:1" cx="390.611" cy="151.764" r="2" stroke="none" fill="black"/>
<circle id="qubit_dot:40:6_6:1" cx="435.866" cy="151.764" r="2" stroke="none" fill="black"/>
<circle id="qubit_dot:41:8_6:1" cx="481.121" cy="151.764" r="2" stroke="none" fill="black"/>
<circle id="qubit_dot:42:2_8:1" cx="345.356" cy="197.019" r="2" stroke="none" fill="black"/>
<circle id="qubit_dot:43:4_8:1" cx="390.611" cy="197.019" r="2" stroke="none" fill="black"/>
<circle id="qubit_dot:44:6_8:1" cx="435.866" cy="197.019" r="2" stroke="none" fill="black"/>
<circle id="qubit_dot:45:8_8:1" cx="481.121" cy="197.019" r="2" stroke="none" fill="black"/>
<circle id="qubit_dot:46:10_8:1" cx="526.376" cy="197.019" r="2" stroke="none" fill="black"/>
<circle id="qubit_dot:47:2_10:1" cx="345.356" cy="242.274" r="2" stroke="none" fill="black"/>
<circle id="qubit_dot:48:6_10:1" cx="435.866" cy="242.274" r="2" stroke="none" fill="black"/>
</g>
<g id="tick_borders">
<rect id="tick_border:0:0_0:0" x="0" y="0" width="258.274" height="258.274" stroke="black" fill="none"/>
<rect id="tick_border:1:0_1:1" x="284.102" y="0" width="258.274" height="258.274" stroke="black" fill="none"/>
</g>
</svg>